<svg width="35" height="35" viewBox="0 0 24 24" fill="none" xmlns="http://www.w3.org/2000/svg">
<g filter="url(#filter0_bdi_426_313)">
<path d="M12 5C12 4.44772 11.5506 3.99356 11.0026 4.06242C9.77376 4.21683 8.59275 4.65513 7.55544 5.34824C6.23985 6.22729 5.21446 7.47672 4.60896 8.93853C4.00346 10.4003 3.84504 12.0089 4.15372 13.5607C4.4624 15.1126 5.22433 16.538 6.34315 17.6569C7.46197 18.7757 8.88743 19.5376 10.4393 19.8463C11.9911 20.155 13.5997 19.9965 15.0615 19.391C16.5233 18.7855 17.7727 17.7602 18.6518 16.4446C19.3449 15.4072 19.7832 14.2262 19.9376 12.9974C20.0064 12.4494 19.5523 12 19 12H13.5C12.6716 12 12 11.3284 12 10.5V5Z" fill="#FFFFF0"/>
<path d="M7.62488 5.45218C8.64599 4.76989 9.80854 4.33844 11.0182 4.18644C11.4809 4.12829 11.875 4.51188 11.875 5V10.5C11.875 11.3975 12.6025 12.125 13.5 12.125H19C19.4881 12.125 19.8717 12.5191 19.8136 12.9818C19.6616 14.1915 19.2301 15.354 18.5478 16.3751C17.6825 17.6702 16.4526 18.6795 15.0136 19.2756C13.5747 19.8716 11.9913 20.0275 10.4637 19.7237C8.93606 19.4198 7.53287 18.6698 6.43153 17.5685C5.3302 16.4671 4.58017 15.0639 4.27632 13.5363C3.97246 12.0087 4.12841 10.4253 4.72445 8.98637C5.32049 7.5474 6.32985 6.31749 7.62488 5.45218Z" stroke="url(#paint0_linear_426_313)" stroke-opacity="0.7" stroke-width="0.25"/>
</g>
<g filter="url(#filter1_d_426_313)">
<path d="M15 3C15 2.44772 15.45 1.99268 15.9966 2.07131C16.5731 2.15423 17.1383 2.30896 17.6788 2.53284C18.5281 2.88463 19.2997 3.40024 19.9497 4.05025C20.5998 4.70026 21.1154 5.47194 21.4672 6.32122C21.691 6.86171 21.8458 7.4269 21.9287 8.00339C22.0073 8.55005 21.5523 9 21 9L16 9C15.4477 9 15 8.55228 15 8V3Z" fill="#C6A435"/>
</g>
<defs>
<filter id="filter0_bdi_426_313" x="0" y="0.0554199" width="23.9445" height="23.9446" filterUnits="userSpaceOnUse" color-interpolation-filters="sRGB">
<feFlood flood-opacity="0" result="BackgroundImageFix"/>
<feGaussianBlur in="BackgroundImageFix" stdDeviation="1"/>
<feComposite in2="SourceAlpha" operator="in" result="effect1_backgroundBlur_426_313"/>
<feColorMatrix in="SourceAlpha" type="matrix" values="0 0 0 0 0 0 0 0 0 0 0 0 0 0 0 0 0 0 127 0" result="hardAlpha"/>
<feOffset/>
<feGaussianBlur stdDeviation="2"/>
<feComposite in2="hardAlpha" operator="out"/>
<feColorMatrix type="matrix" values="0 0 0 0 0.231373 0 0 0 0 0.407843 0 0 0 0 1 0 0 0 0.1 0"/>
<feBlend mode="normal" in2="effect1_backgroundBlur_426_313" result="effect2_dropShadow_426_313"/>
<feBlend mode="normal" in="SourceGraphic" in2="effect2_dropShadow_426_313" result="shape"/>
<feColorMatrix in="SourceAlpha" type="matrix" values="0 0 0 0 0 0 0 0 0 0 0 0 0 0 0 0 0 0 127 0" result="hardAlpha"/>
<feOffset/>
<feGaussianBlur stdDeviation="1.5"/>
<feComposite in2="hardAlpha" operator="arithmetic" k2="-1" k3="1"/>
<feColorMatrix type="matrix" values="0 0 0 0 0.231373 0 0 0 0 0.407843 0 0 0 0 1 0 0 0 0.38 0"/>
<feBlend mode="normal" in2="shape" result="effect3_innerShadow_426_313"/>
</filter>
<filter id="filter1_d_426_313" x="13" y="0.0625" width="10.9376" height="10.9375" filterUnits="userSpaceOnUse" color-interpolation-filters="sRGB">
<feFlood flood-opacity="0" result="BackgroundImageFix"/>
<feColorMatrix in="SourceAlpha" type="matrix" values="0 0 0 0 0 0 0 0 0 0 0 0 0 0 0 0 0 0 127 0" result="hardAlpha"/>
<feOffset/>
<feGaussianBlur stdDeviation="1"/>
<feComposite in2="hardAlpha" operator="out"/>
<feColorMatrix type="matrix" values="0 0 0 0 0.231373 0 0 0 0 0.407843 0 0 0 0 1 0 0 0 0.35 0"/>
<feBlend mode="normal" in2="BackgroundImageFix" result="effect1_dropShadow_426_313"/>
<feBlend mode="normal" in="SourceGraphic" in2="effect1_dropShadow_426_313" result="shape"/>
</filter>
<linearGradient id="paint0_linear_426_313" x1="4.4" y1="6.4" x2="18.4" y2="18.4" gradientUnits="userSpaceOnUse">
<stop stop-color="white" stop-opacity="0.15"/>
<stop offset="1" stop-color="white" stop-opacity="0.44"/>
</linearGradient>
</defs>
</svg>
