<svg width="32" height="32" viewBox="0 0 32 32" fill="none" xmlns="http://www.w3.org/2000/svg">
<g filter="url(#filter0_bdi_726_10728)">
<path d="M15.3228 7.72429C15.3228 7.04517 14.7701 6.48671 14.0963 6.57138C12.5853 6.76125 11.133 7.30022 9.85747 8.15251C8.23973 9.23345 6.97886 10.7698 6.23429 12.5674C5.48973 14.3649 5.29492 16.3429 5.67449 18.2511C6.05407 20.1594 6.99098 21.9122 8.36675 23.288C9.74253 24.6637 11.4954 25.6007 13.4036 25.9802C15.3119 26.3598 17.2898 26.165 19.0874 25.4204C20.8849 24.6759 22.4213 23.415 23.5022 21.7973C24.3545 20.5217 24.8935 19.0695 25.0833 17.5584C25.168 16.8846 24.6096 16.3319 23.9304 16.3319H17.1673C16.1486 16.3319 15.3228 15.5061 15.3228 14.4874V7.72429Z" fill="#A78927"/>
<path d="M10.3493 8.88866C11.5101 8.11308 12.8316 7.62261 14.2067 7.44983C14.2595 7.4432 14.3047 7.45737 14.3485 7.49949C14.3972 7.54635 14.4374 7.62529 14.4374 7.72429V14.4874C14.4374 15.9951 15.6596 17.2173 17.1673 17.2173H23.9304C24.0294 17.2173 24.1084 17.2576 24.1552 17.3063C24.1974 17.3501 24.2115 17.3953 24.2049 17.448C24.0321 18.8231 23.5416 20.1446 22.7661 21.3054C21.7824 22.7775 20.3843 23.9249 18.7485 24.6025C17.1128 25.28 15.3129 25.4573 13.5763 25.1119C11.8398 24.7665 10.2447 23.9139 8.9928 22.6619C7.74084 21.41 6.88825 19.8149 6.54284 18.0784C6.19743 16.3419 6.37471 14.5419 7.05226 12.9062C7.72981 11.2704 8.8772 9.87232 10.3493 8.88866Z" stroke="#3C3A3A" stroke-opacity="0.7" stroke-width="1.77072"/>
</g>
<g filter="url(#filter1_d_726_10728)">
<path d="M19.0117 5.26506C19.0117 4.58594 19.565 4.0264 20.2372 4.12309C20.9461 4.22505 21.6411 4.41532 22.3057 4.69062C23.3501 5.12319 24.299 5.75723 25.0983 6.55652C25.8976 7.35582 26.5316 8.30472 26.9642 9.34904C27.2395 10.0137 27.4297 10.7087 27.5317 11.4176C27.6284 12.0898 27.0688 12.643 26.3897 12.643L20.2414 12.643C19.5623 12.643 19.0117 12.0925 19.0117 11.4134V5.26506Z" fill="#C6A435"/>
<path d="M19.0117 5.26506C19.0117 4.58594 19.565 4.0264 20.2372 4.12309C20.9461 4.22505 21.6411 4.41532 22.3057 4.69062C23.3501 5.12319 24.299 5.75723 25.0983 6.55652C25.8976 7.35582 26.5316 8.30472 26.9642 9.34904C27.2395 10.0137 27.4297 10.7087 27.5317 11.4176C27.6284 12.0898 27.0688 12.643 26.3897 12.643L20.2414 12.643C19.5623 12.643 19.0117 12.0925 19.0117 11.4134V5.26506Z" stroke="#D5D5D5" stroke-width="1.77072"/>
</g>
<defs>
<filter id="filter0_bdi_726_10728" x="0.566819" y="1.64409" width="29.4436" height="29.4438" filterUnits="userSpaceOnUse" color-interpolation-filters="sRGB">
<feFlood flood-opacity="0" result="BackgroundImageFix"/>
<feGaussianBlur in="BackgroundImageFix" stdDeviation="1.22966"/>
<feComposite in2="SourceAlpha" operator="in" result="effect1_backgroundBlur_726_10728"/>
<feColorMatrix in="SourceAlpha" type="matrix" values="0 0 0 0 0 0 0 0 0 0 0 0 0 0 0 0 0 0 127 0" result="hardAlpha"/>
<feOffset/>
<feGaussianBlur stdDeviation="2.45933"/>
<feComposite in2="hardAlpha" operator="out"/>
<feColorMatrix type="matrix" values="0 0 0 0 0.231373 0 0 0 0 0.407843 0 0 0 0 1 0 0 0 0.1 0"/>
<feBlend mode="normal" in2="effect1_backgroundBlur_726_10728" result="effect2_dropShadow_726_10728"/>
<feBlend mode="normal" in="SourceGraphic" in2="effect2_dropShadow_726_10728" result="shape"/>
<feColorMatrix in="SourceAlpha" type="matrix" values="0 0 0 0 0 0 0 0 0 0 0 0 0 0 0 0 0 0 127 0" result="hardAlpha"/>
<feOffset/>
<feGaussianBlur stdDeviation="1.8445"/>
<feComposite in2="hardAlpha" operator="arithmetic" k2="-1" k3="1"/>
<feColorMatrix type="matrix" values="0 0 0 0 0.231373 0 0 0 0 0.407843 0 0 0 0 1 0 0 0 0.38 0"/>
<feBlend mode="normal" in2="shape" result="effect3_innerShadow_726_10728"/>
</filter>
<filter id="filter1_d_726_10728" x="15.667" y="0.766503" width="15.2214" height="15.2211" filterUnits="userSpaceOnUse" color-interpolation-filters="sRGB">
<feFlood flood-opacity="0" result="BackgroundImageFix"/>
<feColorMatrix in="SourceAlpha" type="matrix" values="0 0 0 0 0 0 0 0 0 0 0 0 0 0 0 0 0 0 127 0" result="hardAlpha"/>
<feOffset/>
<feGaussianBlur stdDeviation="1.22966"/>
<feComposite in2="hardAlpha" operator="out"/>
<feColorMatrix type="matrix" values="0 0 0 0 0.231373 0 0 0 0 0.407843 0 0 0 0 1 0 0 0 0.35 0"/>
<feBlend mode="normal" in2="BackgroundImageFix" result="effect1_dropShadow_726_10728"/>
<feBlend mode="normal" in="SourceGraphic" in2="effect1_dropShadow_726_10728" result="shape"/>
</filter>
</defs>
</svg>
