<svg width="97" height="37" viewBox="0 0 127 67" fill="none" xmlns="http://www.w3.org/2000/svg">
<path d="M0.945 53L18.38 14.5H23.825L41.315 53H35.54L19.975 17.58H22.175L6.61 53H0.945ZM8.37 43.375L9.855 38.975H31.525L33.12 43.375H8.37ZM47.0582 53V14.5H64.3282C68.7649 14.5 72.1749 15.3983 74.5582 17.195C76.9415 18.955 78.1332 21.375 78.1332 24.455C78.1332 26.545 77.6565 28.305 76.7032 29.735C75.7865 31.165 74.5399 32.265 72.9632 33.035C71.3865 33.805 69.6815 34.19 67.8482 34.19L68.8382 32.54C71.0382 32.54 72.9815 32.925 74.6682 33.695C76.3549 34.465 77.6932 35.6017 78.6832 37.105C79.6732 38.5717 80.1682 40.405 80.1682 42.605C80.1682 45.905 78.9215 48.4717 76.4282 50.305C73.9715 52.1017 70.3049 53 65.4282 53H47.0582ZM52.5582 48.545H65.2082C68.2515 48.545 70.5799 48.0317 72.1932 47.005C73.8065 45.9783 74.6132 44.365 74.6132 42.165C74.6132 39.9283 73.8065 38.2967 72.1932 37.27C70.5799 36.2433 68.2515 35.73 65.2082 35.73H52.0632V31.275H63.8332C66.6199 31.275 68.7832 30.7617 70.3232 29.735C71.8632 28.7083 72.6332 27.1683 72.6332 25.115C72.6332 23.0617 71.8632 21.5217 70.3232 20.495C68.7832 19.4683 66.6199 18.955 63.8332 18.955H52.5582V48.545ZM105.899 53.44C102.966 53.44 100.253 52.9633 97.7592 52.01C95.3025 51.02 93.1575 49.645 91.3242 47.885C89.5275 46.0883 88.1158 43.9983 87.0892 41.615C86.0625 39.2317 85.5492 36.61 85.5492 33.75C85.5492 30.89 86.0625 28.2683 87.0892 25.885C88.1158 23.5017 89.5458 21.43 91.3792 19.67C93.2125 17.8733 95.3575 16.4983 97.8142 15.545C100.308 14.555 103.021 14.06 105.954 14.06C108.924 14.06 111.656 14.5733 114.149 15.6C116.679 16.59 118.824 18.075 120.584 20.055L117.009 23.52C115.543 21.98 113.893 20.8433 112.059 20.11C110.226 19.34 108.264 18.955 106.174 18.955C104.011 18.955 101.994 19.3217 100.124 20.055C98.2908 20.7883 96.6958 21.815 95.3392 23.135C93.9825 24.455 92.9192 26.0317 92.1492 27.865C91.4158 29.6617 91.0492 31.6233 91.0492 33.75C91.0492 35.8767 91.4158 37.8567 92.1492 39.69C92.9192 41.4867 93.9825 43.045 95.3392 44.365C96.6958 45.685 98.2908 46.7117 100.124 47.445C101.994 48.1783 104.011 48.545 106.174 48.545C108.264 48.545 110.226 48.1783 112.059 47.445C113.893 46.675 115.543 45.5017 117.009 43.925L120.584 47.39C118.824 49.37 116.679 50.8733 114.149 51.9C111.656 52.9267 108.906 53.44 105.899 53.44Z" fill="#C6A435"/>
</svg>
