<svg width="35" height="35" viewBox="0 0 28 28" fill="none" xmlns="http://www.w3.org/2000/svg">
<g filter="url(#filter0_bdi_105_5281)">
<mask id="path-1-inside-1_105_5281" fill="white">
<path fill-rule="evenodd" clip-rule="evenodd" d="M16.4609 4.30508C16.7881 4.38787 17.001 4.68633 17.0771 5.01511C17.258 5.79693 17.7503 6.50461 18.5001 6.9375C19.189 7.33529 19.9702 7.42872 20.6879 7.2595C21.016 7.18215 21.3774 7.24076 21.5967 7.49671C22.3979 8.4317 23.0294 9.51632 23.4437 10.7029C23.5689 11.0617 23.3868 11.4419 23.0935 11.6835C22.4257 12.2338 21.9999 13.0672 21.9999 14C21.9999 14.9328 22.4257 15.7662 23.0935 16.3165C23.3868 16.5581 23.5689 16.9383 23.4437 17.2971C23.0295 18.4835 22.398 19.5681 21.597 20.503C21.3776 20.759 21.0162 20.8176 20.6881 20.7402C19.9703 20.5709 19.1891 20.6643 18.5 21.0621C17.7501 21.4951 17.2579 22.2029 17.077 22.9848C17.001 23.3136 16.788 23.6122 16.4608 23.695C15.6735 23.8942 14.8491 24 14 24C13.1508 24 12.3264 23.8942 11.5392 23.695C11.212 23.6122 10.999 23.3137 10.923 22.9848C10.7421 22.2029 10.2499 21.4951 9.49999 21.0621C8.81091 20.6643 8.02961 20.5709 7.31183 20.7402C6.98373 20.8176 6.62228 20.759 6.40295 20.503C5.6019 19.5681 4.97044 18.4836 4.55625 17.2971C4.43099 16.9383 4.61307 16.5582 4.90639 16.3165C5.5742 15.7663 5.99998 14.9329 5.99998 14C5.99998 13.0671 5.5742 12.2337 4.90639 11.6835C4.61307 11.4418 4.43099 11.0617 4.55625 10.7029C4.97049 9.5163 5.60204 8.43167 6.40321 7.49667C6.62254 7.24072 6.98394 7.18212 7.31201 7.25948C8.02974 7.42873 8.81097 7.33531 9.49999 6.9375C10.2498 6.5046 10.742 5.79691 10.9229 5.01508C10.999 4.6863 11.212 4.38783 11.5391 4.30504C12.3264 4.10584 13.1508 4 14 4C14.8492 4 15.6736 4.10585 16.4609 4.30508Z"/>
</mask>
<path fill-rule="evenodd" clip-rule="evenodd" d="M16.4609 4.30508C16.7881 4.38787 17.001 4.68633 17.0771 5.01511C17.258 5.79693 17.7503 6.50461 18.5001 6.9375C19.189 7.33529 19.9702 7.42872 20.6879 7.2595C21.016 7.18215 21.3774 7.24076 21.5967 7.49671C22.3979 8.4317 23.0294 9.51632 23.4437 10.7029C23.5689 11.0617 23.3868 11.4419 23.0935 11.6835C22.4257 12.2338 21.9999 13.0672 21.9999 14C21.9999 14.9328 22.4257 15.7662 23.0935 16.3165C23.3868 16.5581 23.5689 16.9383 23.4437 17.2971C23.0295 18.4835 22.398 19.5681 21.597 20.503C21.3776 20.759 21.0162 20.8176 20.6881 20.7402C19.9703 20.5709 19.1891 20.6643 18.5 21.0621C17.7501 21.4951 17.2579 22.2029 17.077 22.9848C17.001 23.3136 16.788 23.6122 16.4608 23.695C15.6735 23.8942 14.8491 24 14 24C13.1508 24 12.3264 23.8942 11.5392 23.695C11.212 23.6122 10.999 23.3137 10.923 22.9848C10.7421 22.2029 10.2499 21.4951 9.49999 21.0621C8.81091 20.6643 8.02961 20.5709 7.31183 20.7402C6.98373 20.8176 6.62228 20.759 6.40295 20.503C5.6019 19.5681 4.97044 18.4836 4.55625 17.2971C4.43099 16.9383 4.61307 16.5582 4.90639 16.3165C5.5742 15.7663 5.99998 14.9329 5.99998 14C5.99998 13.0671 5.5742 12.2337 4.90639 11.6835C4.61307 11.4418 4.43099 11.0617 4.55625 10.7029C4.97049 9.5163 5.60204 8.43167 6.40321 7.49667C6.62254 7.24072 6.98394 7.18212 7.31201 7.25948C8.02974 7.42873 8.81097 7.33531 9.49999 6.9375C10.2498 6.5046 10.742 5.79691 10.9229 5.01508C10.999 4.6863 11.212 4.38783 11.5391 4.30504C12.3264 4.10584 13.1508 4 14 4C14.8492 4 15.6736 4.10585 16.4609 4.30508Z" fill="#515050"/>
<path d="M18.5001 6.9375L18.6251 6.72099V6.72099L18.5001 6.9375ZM18.5 21.0621L18.375 20.8456L18.5 21.0621ZM9.49999 21.0621L9.37499 21.2787L9.49999 21.0621ZM9.49999 6.9375L9.62499 7.15401L9.49999 6.9375ZM10.9229 5.01508L10.6794 4.95872L10.9229 5.01508ZM7.31183 20.7402L7.25443 20.4969L7.31183 20.7402ZM6.40295 20.503L6.59279 20.3404L6.40295 20.503ZM11.5392 23.695L11.6005 23.4526L11.5392 23.695ZM10.923 22.9848L11.1666 22.9285L10.923 22.9848ZM17.077 22.9848L16.8334 22.9285L17.077 22.9848ZM16.4608 23.695L16.5221 23.9373L16.4608 23.695ZM21.597 20.503L21.4071 20.3403L21.597 20.503ZM23.4437 10.7029L23.6797 10.6205L23.4437 10.7029ZM23.0935 11.6835L22.9345 11.4906L23.0935 11.6835ZM20.6879 7.2595L20.6306 7.01617L20.6879 7.2595ZM23.0935 16.3165L22.9345 16.5094L23.0935 16.3165ZM23.4437 17.2971L23.2076 17.2147L23.4437 17.2971ZM17.0771 5.01511L16.8336 5.07147L17.0771 5.01511ZM16.8336 5.07147C17.0294 5.91797 17.5628 6.68505 18.3751 7.15401L18.6251 6.72099C17.9377 6.32417 17.4866 5.67589 17.3207 4.95875L16.8336 5.07147ZM18.3751 7.15401C19.1214 7.58488 19.9681 7.68608 20.7453 7.50283L20.6306 7.01617C19.9724 7.17136 19.2567 7.08569 18.6251 6.72099L18.3751 7.15401ZM23.6797 10.6205C23.255 9.404 22.6076 8.29226 21.7866 7.33404L21.4069 7.65937C22.1881 8.57115 22.8038 9.62864 23.2076 10.7853L23.6797 10.6205ZM22.2499 14C22.2499 13.145 22.6398 12.3812 23.2525 11.8765L22.9345 11.4906C22.2116 12.0863 21.7499 12.9893 21.7499 14H22.2499ZM23.2525 16.1235C22.6398 15.6188 22.2499 14.855 22.2499 14H21.7499C21.7499 15.0107 22.2116 15.9137 22.9345 16.5094L23.2525 16.1235ZM21.7868 20.6656C22.6078 19.7075 23.2551 18.5959 23.6797 17.3795L23.2076 17.2147C22.8039 18.3712 22.1883 19.4286 21.4071 20.3403L21.7868 20.6656ZM18.625 21.2787C19.2567 20.9139 19.9725 20.8283 20.6307 20.9835L20.7455 20.4969C19.9682 20.3136 19.1214 20.4147 18.375 20.8456L18.625 21.2787ZM17.3206 23.0412C17.4865 22.3239 17.9376 21.6755 18.625 21.2787L18.375 20.8456C17.5626 21.3147 17.0293 22.0819 16.8334 22.9285L17.3206 23.0412ZM14 24.25C14.87 24.25 15.715 24.1416 16.5221 23.9373L16.3995 23.4526C15.6321 23.6468 14.8283 23.75 14 23.75V24.25ZM11.4779 23.9373C12.285 24.1416 13.13 24.25 14 24.25V23.75C13.1717 23.75 12.3679 23.6468 11.6005 23.4526L11.4779 23.9373ZM9.37499 21.2787C10.0624 21.6755 10.5135 22.3239 10.6794 23.0412L11.1666 22.9285C10.9707 22.0819 10.4374 21.3147 9.62499 20.8456L9.37499 21.2787ZM7.36922 20.9835C8.02748 20.8283 8.74323 20.9139 9.37499 21.2787L9.62499 20.8456C8.87859 20.4147 8.03174 20.3135 7.25443 20.4969L7.36922 20.9835ZM4.32022 17.3795C4.74486 18.5959 5.39216 19.7075 6.2131 20.6657L6.59279 20.3404C5.81164 19.4286 5.19603 18.3712 4.79228 17.2147L4.32022 17.3795ZM5.74998 14C5.74998 14.855 5.36006 15.6188 4.74741 16.1235L5.06536 16.5094C5.78834 15.9137 6.24998 15.0107 6.24998 14H5.74998ZM4.74741 11.8765C5.36007 12.3812 5.74998 13.145 5.74998 14H6.24998C6.24998 12.9893 5.78834 12.0862 5.06536 11.4906L4.74741 11.8765ZM6.21337 7.33401C5.3923 8.29223 4.7449 9.40398 4.32022 10.6205L4.79228 10.7853C5.19607 9.62862 5.81178 8.57112 6.59305 7.65934L6.21337 7.33401ZM9.37499 6.72099C8.74329 7.08571 8.0276 7.17136 7.36939 7.01615L7.25463 7.50281C8.03189 7.68609 8.87866 7.5849 9.62499 7.15401L9.37499 6.72099ZM10.6794 4.95872C10.5134 5.67587 10.0623 6.32417 9.37499 6.72099L9.62499 7.15401C10.4373 6.68504 10.9706 5.91795 11.1665 5.07144L10.6794 4.95872ZM14 3.75C13.13 3.75 12.2849 3.85845 11.4778 4.06268L11.6005 4.5474C12.3678 4.35323 13.1716 4.25 14 4.25V3.75ZM16.5223 4.06272C15.7151 3.85846 14.87 3.75 14 3.75V4.25C14.8283 4.25 15.6322 4.35325 16.3996 4.54744L16.5223 4.06272ZM11.1665 5.07144C11.2297 4.79846 11.3947 4.59948 11.6005 4.5474L11.4778 4.06268C11.0293 4.17617 10.7684 4.57413 10.6794 4.95872L11.1665 5.07144ZM5.06536 11.4906C4.81933 11.2879 4.71393 11.0097 4.79228 10.7853L4.32022 10.6205C4.14804 11.1137 4.40681 11.5958 4.74741 11.8765L5.06536 11.4906ZM7.25443 20.4969C6.98216 20.5611 6.73088 20.5015 6.59279 20.3404L6.2131 20.6657C6.51367 21.0165 6.9853 21.0741 7.36922 20.9835L7.25443 20.4969ZM11.6005 23.4526C11.3947 23.4005 11.2297 23.2015 11.1666 22.9285L10.6794 23.0412C10.7684 23.4258 11.0293 23.8238 11.4779 23.9373L11.6005 23.4526ZM16.8334 22.9285C16.7703 23.2015 16.6053 23.4005 16.3995 23.4526L16.5221 23.9373C16.9707 23.8238 17.2316 23.4258 17.3206 23.0412L16.8334 22.9285ZM21.4071 20.3403C21.269 20.5015 21.0178 20.5611 20.7455 20.4969L20.6307 20.9835C21.0146 21.0741 21.4863 21.0165 21.7868 20.6656L21.4071 20.3403ZM23.2076 10.7853C23.286 11.0097 23.1806 11.2879 22.9345 11.4906L23.2525 11.8765C23.5931 11.5958 23.8519 11.1137 23.6797 10.6205L23.2076 10.7853ZM4.79228 17.2147C4.71393 16.9903 4.81932 16.7121 5.06536 16.5094L4.74741 16.1235C4.40681 16.4042 4.14804 16.8863 4.32022 17.3795L4.79228 17.2147ZM20.7453 7.50283C21.0176 7.43864 21.2688 7.49823 21.4069 7.65937L21.7866 7.33404C21.486 6.98329 21.0145 6.92566 20.6306 7.01617L20.7453 7.50283ZM6.59305 7.65934C6.73114 7.49819 6.98238 7.43861 7.25463 7.50281L7.36939 7.01615C6.9855 6.92563 6.51393 6.98324 6.21337 7.33401L6.59305 7.65934ZM22.9345 16.5094C23.1806 16.7121 23.286 16.9903 23.2076 17.2147L23.6797 17.3795C23.8519 16.8863 23.5931 16.4042 23.2525 16.1235L22.9345 16.5094ZM17.3207 4.95875C17.2317 4.57417 16.9708 4.17622 16.5223 4.06272L16.3996 4.54744C16.6054 4.59953 16.7704 4.7985 16.8336 5.07147L17.3207 4.95875Z" fill="url(#paint0_linear_105_5281)" fill-opacity="0.7" mask="url(#path-1-inside-1_105_5281)"/>
</g>
<g filter="url(#filter1_d_105_5281)">
<circle cx="3" cy="3" r="3" transform="matrix(-1 0 0 1 17 11)" fill="#DADADC"/>
</g>
<defs>
<filter id="filter0_bdi_105_5281" x="0.516113" y="0" width="26.9678" height="28" filterUnits="userSpaceOnUse" color-interpolation-filters="sRGB">
<feFlood flood-opacity="0" result="BackgroundImageFix"/>
<feGaussianBlur in="BackgroundImageFix" stdDeviation="1"/>
<feComposite in2="SourceAlpha" operator="in" result="effect1_backgroundBlur_105_5281"/>
<feColorMatrix in="SourceAlpha" type="matrix" values="0 0 0 0 0 0 0 0 0 0 0 0 0 0 0 0 0 0 127 0" result="hardAlpha"/>
<feOffset/>
<feGaussianBlur stdDeviation="2"/>
<feComposite in2="hardAlpha" operator="out"/>
<feColorMatrix type="matrix" values="0 0 0 0 0.231373 0 0 0 0 0.407843 0 0 0 0 1 0 0 0 0.1 0"/>
<feBlend mode="normal" in2="effect1_backgroundBlur_105_5281" result="effect2_dropShadow_105_5281"/>
<feBlend mode="normal" in="SourceGraphic" in2="effect2_dropShadow_105_5281" result="shape"/>
<feColorMatrix in="SourceAlpha" type="matrix" values="0 0 0 0 0 0 0 0 0 0 0 0 0 0 0 0 0 0 127 0" result="hardAlpha"/>
<feOffset/>
<feGaussianBlur stdDeviation="1.5"/>
<feComposite in2="hardAlpha" operator="arithmetic" k2="-1" k3="1"/>
<feColorMatrix type="matrix" values="0 0 0 0 0.231373 0 0 0 0 0.407843 0 0 0 0 1 0 0 0 0.38 0"/>
<feBlend mode="normal" in2="shape" result="effect3_innerShadow_105_5281"/>
</filter>
<filter id="filter1_d_105_5281" x="9" y="9" width="10" height="10" filterUnits="userSpaceOnUse" color-interpolation-filters="sRGB">
<feFlood flood-opacity="0" result="BackgroundImageFix"/>
<feColorMatrix in="SourceAlpha" type="matrix" values="0 0 0 0 0 0 0 0 0 0 0 0 0 0 0 0 0 0 127 0" result="hardAlpha"/>
<feOffset/>
<feGaussianBlur stdDeviation="1"/>
<feComposite in2="hardAlpha" operator="out"/>
<feColorMatrix type="matrix" values="0 0 0 0 0.231373 0 0 0 0 0.407843 0 0 0 0 1 0 0 0 0.35 0"/>
<feBlend mode="normal" in2="BackgroundImageFix" result="effect1_dropShadow_105_5281"/>
<feBlend mode="normal" in="SourceGraphic" in2="effect1_dropShadow_105_5281" result="shape"/>
</filter>
<linearGradient id="paint0_linear_105_5281" x1="4.99031" y1="7" x2="22.3254" y2="21.0917" gradientUnits="userSpaceOnUse">
<stop stop-color="white" stop-opacity="0.15"/>
<stop offset="1" stop-color="white" stop-opacity="0.44"/>
</linearGradient>
</defs>
</svg>
